<svg width="20" height="20" viewBox="0 0 20 20" fill="none" xmlns="http://www.w3.org/2000/svg">
<path d="M13.1667 1.84164C12.8251 1.49997 12.2334 1.73331 12.2334 2.20831V5.11664C12.2334 6.33331 13.2667 7.34164 14.5251 7.34164C15.3167 7.34997 16.4167 7.34997 17.3584 7.34997C17.8334 7.34997 18.0834 6.79164 17.7501 6.45831C16.5501 5.24997 14.4001 3.07497 13.1667 1.84164Z" fill="url(#paint0_linear_9_975)"/>
<path d="M17.0835 8.49169H14.6752C12.7002 8.49169 11.0918 6.88335 11.0918 4.90835V2.50002C11.0918 2.04169 10.7168 1.66669 10.2585 1.66669H6.72516C4.1585 1.66669 2.0835 3.33335 2.0835 6.30835V13.6917C2.0835 16.6667 4.1585 18.3334 6.72516 18.3334H13.2752C15.8418 18.3334 17.9168 16.6667 17.9168 13.6917V9.32502C17.9168 8.86669 17.5418 8.49169 17.0835 8.49169ZM9.5835 14.7917H6.25016C5.9085 14.7917 5.62516 14.5084 5.62516 14.1667C5.62516 13.825 5.9085 13.5417 6.25016 13.5417H9.5835C9.92516 13.5417 10.2085 13.825 10.2085 14.1667C10.2085 14.5084 9.92516 14.7917 9.5835 14.7917ZM11.2502 11.4584H6.25016C5.9085 11.4584 5.62516 11.175 5.62516 10.8334C5.62516 10.4917 5.9085 10.2084 6.25016 10.2084H11.2502C11.5918 10.2084 11.8752 10.4917 11.8752 10.8334C11.8752 11.175 11.5918 11.4584 11.2502 11.4584Z" fill="url(#paint1_linear_9_975)"/>
<defs>
<linearGradient id="paint0_linear_9_975" x1="17.0007" y1="2.0659" x2="13.6495" y2="6.83363" gradientUnits="userSpaceOnUse">
<stop stop-color="#FFD501"/>
<stop offset="1" stop-color="#E94F10"/>
</linearGradient>
<linearGradient id="paint1_linear_9_975" x1="15.3979" y1="2.80305" x2="5.38852" y2="16.335" gradientUnits="userSpaceOnUse">
<stop stop-color="#FFD501"/>
<stop offset="1" stop-color="#E94F10"/>
</linearGradient>
</defs>
</svg>
